<svg xmlns="http://www.w3.org/2000/svg" xmlns:xlink="http://www.w3.org/1999/xlink" width="1920" zoomAndPan="magnify" viewBox="0 0 1440 809.999993" height="1080" preserveAspectRatio="xMidYMid meet" version="1.0"><defs><filter x="0%" y="0%" width="100%" height="100%" id="c5c1b844a3"><feColorMatrix values="0 0 0 0 1 0 0 0 0 1 0 0 0 0 1 0 0 0 1 0" color-interpolation-filters="sRGB"/></filter><clipPath id="f7208d9da5"><path d="M 0 0 L 1439.648438 0 L 1439.648438 810 L 0 810 Z M 0 0 " clip-rule="nonzero"/></clipPath><linearGradient x1="0.000808716" gradientTransform="matrix(3.164062, 0, 0, 3.164062, -0.00255261, 0.00002)" y1="128" x2="455.00081" gradientUnits="userSpaceOnUse" y2="128" id="2705e44fcf"><stop stop-opacity="1" stop-color="rgb(0%, 69.799805%, 71.759033%)" offset="0"/><stop stop-opacity="1" stop-color="rgb(0%, 69.62738%, 71.604919%)" offset="0.03125"/><stop stop-opacity="1" stop-color="rgb(0%, 69.284058%, 71.299744%)" offset="0.0625"/><stop stop-opacity="1" stop-color="rgb(0%, 68.940735%, 70.993042%)" offset="0.09375"/><stop stop-opacity="1" stop-color="rgb(0%, 68.597412%, 70.687866%)" offset="0.125"/><stop stop-opacity="1" stop-color="rgb(0%, 68.255615%, 70.381165%)" offset="0.15625"/><stop stop-opacity="1" stop-color="rgb(0%, 67.912292%, 70.074463%)" offset="0.1875"/><stop stop-opacity="1" stop-color="rgb(0%, 67.56897%, 69.769287%)" offset="0.21875"/><stop stop-opacity="1" stop-color="rgb(0%, 67.225647%, 69.462585%)" offset="0.25"/><stop stop-opacity="1" stop-color="rgb(0%, 66.882324%, 69.155884%)" offset="0.28125"/><stop stop-opacity="1" stop-color="rgb(0%, 66.539001%, 68.850708%)" offset="0.3125"/><stop stop-opacity="1" stop-color="rgb(0%, 66.197205%, 68.544006%)" offset="0.34375"/><stop stop-opacity="1" stop-color="rgb(0%, 65.853882%, 68.237305%)" offset="0.375"/><stop stop-opacity="1" stop-color="rgb(0%, 65.510559%, 67.932129%)" offset="0.40625"/><stop stop-opacity="1" stop-color="rgb(0%, 65.167236%, 67.625427%)" offset="0.4375"/><stop stop-opacity="1" stop-color="rgb(0%, 64.823914%, 67.318726%)" offset="0.46875"/><stop stop-opacity="1" stop-color="rgb(0%, 64.482117%, 67.01355%)" offset="0.5"/><stop stop-opacity="1" stop-color="rgb(0%, 64.138794%, 66.706848%)" offset="0.53125"/><stop stop-opacity="1" stop-color="rgb(0%, 63.795471%, 66.400146%)" offset="0.5625"/><stop stop-opacity="1" stop-color="rgb(0%, 63.452148%, 66.094971%)" offset="0.59375"/><stop stop-opacity="1" stop-color="rgb(0%, 63.108826%, 65.788269%)" offset="0.625"/><stop stop-opacity="1" stop-color="rgb(0%, 62.765503%, 65.481567%)" offset="0.65625"/><stop stop-opacity="1" stop-color="rgb(0%, 62.423706%, 65.176392%)" offset="0.6875"/><stop stop-opacity="1" stop-color="rgb(0%, 62.080383%, 64.86969%)" offset="0.71875"/><stop stop-opacity="1" stop-color="rgb(0%, 61.737061%, 64.562988%)" offset="0.75"/><stop stop-opacity="1" stop-color="rgb(0%, 61.393738%, 64.257812%)" offset="0.78125"/><stop stop-opacity="1" stop-color="rgb(0%, 61.050415%, 63.951111%)" offset="0.8125"/><stop stop-opacity="1" stop-color="rgb(0%, 60.708618%, 63.644409%)" offset="0.84375"/><stop stop-opacity="1" stop-color="rgb(0%, 60.365295%, 63.339233%)" offset="0.875"/><stop stop-opacity="1" stop-color="rgb(0%, 60.021973%, 63.032532%)" offset="0.90625"/><stop stop-opacity="1" stop-color="rgb(0%, 59.67865%, 62.72583%)" offset="0.9375"/><stop stop-opacity="1" stop-color="rgb(0%, 59.335327%, 62.420654%)" offset="0.96875"/><stop stop-opacity="1" stop-color="rgb(0%, 58.99353%, 62.113953%)" offset="1"/></linearGradient><clipPath id="0458ed161f"><rect x="0" width="1440" y="0" height="810"/></clipPath><mask id="6767767b8f"><g filter="url(#c5c1b844a3)"><rect x="-144" width="1728" fill="#000000" y="-80.999999" height="971.999992" fill-opacity="0.05"/></g></mask><clipPath id="58d757c624"><path d="M 0.480469 0 L 1379.519531 0 L 1379.519531 810 L 0.480469 810 Z M 0.480469 0 " clip-rule="nonzero"/></clipPath><clipPath id="b76988870a"><rect x="0" width="1380" y="0" height="810"/></clipPath></defs><rect x="-144" width="1728" fill="#ffffff" y="-80.999999" height="971.999992" fill-opacity="1"/><rect x="-144" width="1728" fill="#ffffff" y="-80.999999" height="971.999992" fill-opacity="1"/><g transform="matrix(1, 0, 0, 1, 0, 0.000000000000039746)"><g clip-path="url(#0458ed161f)"><g clip-path="url(#f7208d9da5)"><path fill="url(#2705e44fcf)" d="M 0 0 L 0 810 L 1439.648438 810 L 1439.648438 0 Z M 0 0 " fill-rule="nonzero"/></g></g></g><g mask="url(#6767767b8f)"><g transform="matrix(1, 0, 0, 1, 30, 0.000000000000039746)"><g clip-path="url(#b76988870a)"><g clip-path="url(#58d757c624)"><path fill="#ffffff" d="M 689.996094 288.769531 C 643.121094 288.769531 605.066406 326.820312 605.066406 373.695312 C 605.066406 420.574219 643.121094 458.625 689.996094 458.625 C 736.871094 458.625 774.925781 420.574219 774.925781 373.695312 C 774.925781 326.820312 736.871094 288.769531 689.996094 288.769531 Z M 761.136719 373.695312 C 761.136719 413.128906 729.152344 444.839844 689.996094 444.839844 C 650.566406 444.839844 618.855469 412.851562 618.855469 373.695312 C 618.855469 334.542969 650.839844 302.554688 689.996094 302.554688 C 729.429688 302.554688 761.136719 334.265625 761.136719 373.695312 Z M 689.996094 207.699219 C 598.449219 207.699219 524 281.875 524 373.695312 C 524 465.519531 598.175781 539.695312 689.996094 539.695312 C 781.542969 539.695312 855.992188 465.519531 855.992188 373.695312 C 855.71875 282.152344 781.542969 207.976562 689.996094 207.699219 Z M 689.996094 525.90625 C 605.894531 525.90625 537.785156 457.800781 537.785156 373.695312 C 537.785156 289.59375 605.894531 221.488281 689.996094 221.488281 C 774.097656 221.488281 842.207031 289.59375 842.207031 373.695312 C 841.929688 457.800781 774.097656 525.632812 689.996094 525.90625 Z M 689.996094 126.90625 C 553.78125 126.90625 443.207031 237.480469 443.207031 373.695312 C 443.207031 509.914062 553.78125 620.488281 689.996094 620.488281 C 826.214844 620.488281 936.785156 509.914062 936.785156 373.695312 C 936.511719 237.480469 826.214844 127.183594 689.996094 126.90625 Z M 689.996094 606.699219 C 561.222656 606.699219 456.992188 502.46875 456.992188 373.695312 C 456.992188 244.925781 561.222656 140.695312 689.996094 140.695312 C 818.769531 140.695312 923 244.925781 923 373.695312 C 922.722656 502.195312 818.492188 606.425781 689.996094 606.699219 Z M 689.996094 46.113281 C 509.109375 46.113281 362.414062 192.808594 362.414062 373.695312 C 362.414062 554.585938 509.109375 701.28125 689.996094 701.28125 C 870.882812 701.28125 1017.578125 554.585938 1017.578125 373.695312 C 1017.304688 192.808594 870.882812 46.390625 689.996094 46.113281 Z M 689.996094 687.492188 C 516.554688 687.492188 376.199219 546.863281 376.199219 373.695312 C 376.199219 200.53125 516.828125 59.902344 689.996094 59.902344 C 863.4375 59.902344 1003.792969 200.53125 1003.792969 373.695312 C 1003.515625 546.863281 863.164062 687.21875 689.996094 687.492188 Z M 689.996094 -34.953125 C 464.714844 -34.953125 281.34375 148.414062 281.34375 373.695312 C 281.34375 598.980469 464.714844 782.347656 689.996094 782.347656 C 915.277344 782.347656 1098.648438 598.980469 1098.648438 373.695312 C 1098.648438 148.414062 915.277344 -34.953125 689.996094 -34.953125 Z M 689.996094 768.5625 C 472.433594 768.5625 295.132812 591.535156 295.132812 373.695312 C 295.132812 155.859375 472.433594 -21.167969 689.996094 -21.167969 C 907.558594 -21.167969 1084.859375 156.136719 1084.859375 373.695312 C 1084.859375 591.257812 907.558594 768.5625 689.996094 768.5625 Z M 689.996094 -115.746094 C 420.042969 -115.746094 200.550781 103.746094 200.550781 373.695312 C 200.550781 643.648438 420.042969 863.140625 689.996094 863.140625 C 959.949219 863.140625 1179.441406 643.648438 1179.441406 373.695312 C 1179.441406 103.746094 959.949219 -115.746094 689.996094 -115.746094 Z M 689.996094 849.355469 C 427.765625 849.355469 214.339844 635.929688 214.339844 373.695312 C 214.339844 111.464844 427.765625 -101.960938 689.996094 -101.960938 C 952.226562 -101.960938 1165.652344 111.464844 1165.652344 373.695312 C 1165.652344 635.929688 952.226562 849.355469 689.996094 849.355469 Z M 689.996094 -196.539062 C 375.648438 -196.539062 119.757812 59.351562 119.757812 373.695312 C 119.757812 688.042969 375.648438 943.933594 689.996094 943.933594 C 1004.34375 943.933594 1260.234375 688.042969 1260.234375 373.695312 C 1260.234375 59.351562 1004.34375 -196.539062 689.996094 -196.539062 Z M 689.996094 930.148438 C 383.09375 930.148438 133.546875 680.597656 133.546875 373.695312 C 133.546875 66.792969 383.09375 -182.753906 689.996094 -182.753906 C 996.898438 -182.753906 1246.445312 66.792969 1246.445312 373.695312 C 1246.445312 680.597656 996.898438 930.148438 689.996094 930.148438 Z M 1150.488281 -86.792969 C 896.253906 -341.03125 483.742188 -341.03125 229.503906 -86.792969 C -24.730469 167.441406 -24.730469 579.953125 229.503906 834.1875 C 483.742188 1088.421875 896.253906 1088.421875 1150.488281 834.1875 C 1404.722656 579.953125 1404.722656 167.441406 1150.488281 -86.792969 Z M 689.996094 1010.941406 C 338.425781 1010.941406 52.476562 725.269531 52.476562 373.695312 C 52.476562 22.125 338.425781 -263.820312 689.996094 -263.820312 C 1041.570312 -263.820312 1327.515625 22.125 1327.515625 373.695312 C 1327.515625 725.269531 1041.570312 1010.941406 689.996094 1010.941406 Z M 488.152344 1063.054688 L 442.65625 1063.054688 C 236.949219 988.605469 75.089844 826.742188 0.636719 621.316406 L 0.636719 575.816406 C 69.851562 810.199219 253.496094 993.84375 488.152344 1063.054688 Z M 1207.566406 -143.871094 C 1284.222656 -67.769531 1342.679688 24.605469 1379.355469 126.355469 L 1379.355469 171.851562 C 1310.144531 -62.804688 1126.5 -246.449219 891.839844 -315.660156 L 937.339844 -315.660156 C 1039.085938 -278.988281 1131.460938 -220.53125 1207.566406 -143.871094 Z M 0.636719 171.851562 L 0.636719 126.355469 C 75.089844 -79.347656 236.949219 -241.210938 442.378906 -315.660156 L 487.875 -315.660156 C 253.496094 -246.449219 69.851562 -62.804688 0.636719 171.851562 Z M 1379.355469 575.542969 L 1379.355469 621.039062 C 1304.902344 826.742188 1143.042969 988.605469 937.613281 1063.054688 L 892.117188 1063.054688 C 1126.5 993.84375 1310.144531 810.199219 1379.355469 575.542969 Z M 286.308594 1063.054688 L 258.734375 1063.054688 C 154.503906 997.429688 66.265625 909.191406 0.636719 805.234375 L 0.636719 777.660156 C 70.125 895.402344 168.289062 993.566406 286.308594 1063.054688 Z M 0.636719 -29.992188 L 0.636719 -57.566406 C 66.265625 -161.796875 154.503906 -250.035156 258.457031 -315.660156 L 286.03125 -315.660156 C 168.289062 -246.171875 70.125 -148.007812 0.636719 -29.992188 Z M 1379.355469 777.386719 L 1379.355469 804.960938 C 1313.726562 909.191406 1225.488281 997.152344 1121.535156 1063.054688 L 1093.960938 1063.054688 C 1211.703125 993.566406 1309.867188 895.402344 1379.355469 777.386719 Z M 1264.921875 -201.226562 C 1308.214844 -157.9375 1346.816406 -109.679688 1379.355469 -57.839844 L 1379.355469 -30.265625 C 1309.867188 -148.007812 1211.703125 -246.171875 1093.683594 -315.660156 L 1121.257812 -315.660156 C 1173.375 -282.847656 1221.355469 -244.519531 1264.921875 -201.226562 Z M 0.636719 -172.824219 L 0.636719 -195.4375 C 18.5625 -217.21875 37.863281 -238.175781 57.992188 -258.304688 C 78.121094 -278.4375 99.355469 -297.738281 120.863281 -315.660156 L 143.472656 -315.660156 C 90.53125 -273.746094 42.550781 -225.769531 0.636719 -172.824219 Z M 143.472656 1063.054688 L 120.863281 1063.054688 C 99.078125 1045.132812 78.121094 1025.828125 57.992188 1005.699219 C 37.863281 985.570312 18.5625 964.613281 0.636719 942.832031 L 0.636719 920.21875 C 42.550781 973.164062 90.53125 1021.140625 143.472656 1063.054688 Z M 1379.355469 920.21875 L 1379.355469 942.832031 C 1361.429688 964.613281 1342.128906 985.570312 1322 1005.699219 C 1301.871094 1025.828125 1280.640625 1045.132812 1259.128906 1063.054688 L 1236.519531 1063.054688 C 1289.460938 1021.140625 1337.441406 973.164062 1379.355469 920.21875 Z M 1379.355469 -195.4375 L 1379.355469 -172.824219 C 1337.167969 -225.769531 1289.1875 -273.746094 1236.242188 -315.660156 L 1258.855469 -315.660156 C 1280.640625 -297.738281 1301.59375 -278.4375 1321.722656 -258.304688 C 1342.128906 -238.175781 1361.429688 -216.945312 1379.355469 -195.4375 Z M 1379.355469 -195.4375 " fill-opacity="1" fill-rule="nonzero"/></g></g></g></g></svg>